<!DOCTYPE svg PUBLIC "-//W3C//DTD SVG 1.1//EN" "http://www.w3.org/Graphics/SVG/1.1/DTD/svg11.dtd">
<!-- Uploaded to: SVG Repo, www.svgrepo.com, Transformed by: SVG Repo Mixer Tools -->
<svg fill="#000000" version="1.1" id="Capa_1" xmlns="http://www.w3.org/2000/svg" xmlns:xlink="http://www.w3.org/1999/xlink" width="800px" height="800px" viewBox="-3.08 -3.08 36.91 36.91" xml:space="preserve" stroke="#000000" stroke-width="0.0003075">
<g id="SVGRepo_bgCarrier" stroke-width="0" transform="translate(0,0), scale(1)">
<rect x="-3.08" y="-3.08" width="36.91" height="36.91" rx="5.5365" fill="#ffffff" strokewidth="0"/>
</g>
<g id="SVGRepo_tracerCarrier" stroke-linecap="round" stroke-linejoin="round" stroke="#CCCCCC" stroke-width="0.0615"/>
<g id="SVGRepo_iconCarrier"> <g> <path d="M29.25,4.349H1.5c-0.829,0-1.5,0.672-1.5,1.5v19.053c0,0.828,0.671,1.5,1.5,1.5h27.75c0.829,0,1.5-0.672,1.5-1.5V5.849 C30.75,5.021,30.079,4.349,29.25,4.349z M27.75,23.398H3V7.347h24.75V23.398z M6.375,15.375c0-1.242,1.007-2.25,2.25-2.25 s2.25,1.008,2.25,2.25c0,1.242-1.007,2.25-2.25,2.25S6.375,16.616,6.375,15.375z M13.125,15.375c0-1.242,1.007-2.25,2.25-2.25 c1.242,0,2.25,1.008,2.25,2.25c0,1.242-1.008,2.25-2.25,2.25C14.132,17.624,13.125,16.616,13.125,15.375z M19.875,15.375 c0-1.242,1.007-2.25,2.25-2.25c1.242,0,2.25,1.008,2.25,2.25c0,1.242-1.008,2.25-2.25,2.25 C20.882,17.624,19.875,16.616,19.875,15.375z"/> </g> </g>
</svg>